<?xml version="1.0" standalone="no"?>
<!DOCTYPE svg PUBLIC "-//W3C//DTD SVG 20010904//EN"
 "http://www.w3.org/TR/2001/REC-SVG-20010904/DTD/svg10.dtd">
<svg version="1.0" xmlns="http://www.w3.org/2000/svg"
 width="500.000000pt" height="500.000000pt" viewBox="0 0 500.000000 500.000000"
 preserveAspectRatio="xMidYMid meet">
<metadata>
Created by potrace 1.11, written by Peter Selinger 2001-2013
</metadata>
<g transform="translate(0.000000,500.000000) scale(0.100000,-0.100000)"
fill="#000000" stroke="none">
<path d="M2441 3569 c-60 -60 -73 -207 -27 -319 30 -75 85 -160 100 -154 16 7
69 91 96 154 46 109 29 271 -35 328 -39 34 -95 30 -134 -9z m95 -115 c10 -24
14 -63 13 -117 -2 -86 -29 -191 -43 -168 -36 58 -45 246 -13 294 10 15 20 27
23 27 3 0 12 -16 20 -36z"/>
<path d="M2165 3340 c-24 -26 -15 -88 20 -141 25 -38 106 -99 131 -99 30 0 25
108 -8 177 -36 77 -104 107 -143 63z m103 -113 c13 -25 22 -52 20 -59 -5 -15
-68 78 -68 100 0 26 25 5 48 -41z"/>
<path d="M2736 3325 c-20 -19 -41 -54 -47 -77 -12 -42 -16 -134 -6 -144 8 -9
70 21 105 51 65 54 93 153 54 188 -30 27 -68 21 -106 -18z m50 -72 c-4 -15
-21 -44 -37 -63 l-31 -35 7 30 c7 31 55 109 62 101 3 -3 2 -17 -1 -33z"/>
<path d="M2085 3048 c-42 -15 -84 -56 -94 -93 -30 -113 137 -180 203 -81 l16
26 -38 0 c-21 0 -46 6 -55 13 -15 10 -16 15 -4 31 18 25 74 27 118 5 54 -27
73 -75 66 -163 -3 -39 -9 -80 -13 -91 -6 -18 -4 -17 21 5 79 71 71 194 -18
287 -56 58 -139 83 -202 61z"/>
<path d="M2820 3044 c-48 -17 -107 -70 -133 -121 -40 -77 -27 -172 30 -224
l26 -24 -7 25 c-3 14 -9 55 -12 91 -6 58 -3 72 17 108 30 54 89 79 143 61 64
-21 41 -59 -36 -60 -35 0 -35 -16 -1 -46 37 -31 74 -38 115 -21 73 31 94 106
47 166 -44 54 -115 71 -189 45z"/>
<path d="M2396 2987 c-25 -18 -17 -49 17 -65 32 -16 43 -34 46 -84 7 -99 -92
-163 -321 -208 -68 -13 -144 -61 -171 -107 -20 -36 -25 -79 -13 -137 l7 -39
-42 7 c-85 14 -150 95 -144 181 2 31 10 45 39 70 41 34 44 45 18 68 -38 35
-105 9 -137 -53 -18 -36 -25 -122 -12 -171 22 -90 121 -158 236 -163 65 -3 65
-3 69 -35 2 -23 -3 -37 -22 -56 -21 -21 -34 -25 -83 -25 -69 0 -95 -15 -123
-70 -36 -71 -25 -124 37 -164 77 -51 159 -41 223 26 67 68 86 162 66 311 -4
32 -3 47 5 47 22 0 121 73 155 116 20 24 46 68 59 99 18 44 33 63 77 95 53 38
118 119 118 147 0 26 17 12 35 -27 20 -45 84 -114 125 -135 19 -10 39 -38 63
-89 40 -83 99 -148 169 -186 l44 -23 0 -126 c-1 -133 7 -164 63 -229 67 -78
202 -73 263 8 27 37 29 66 7 116 -28 67 -52 83 -125 84 -77 0 -105 19 -107 73
l-2 38 68 4 c149 8 247 101 246 235 -1 58 -17 103 -52 140 -38 40 -89 42 -114
4 -16 -25 -16 -27 3 -40 59 -43 71 -69 60 -128 -14 -73 -72 -130 -145 -141
-39 -6 -42 -5 -37 11 13 46 16 88 6 122 -18 70 -110 133 -210 146 -122 17
-234 71 -278 136 -19 28 -22 43 -17 79 6 48 19 71 40 71 6 0 20 9 29 19 17 18
17 20 -3 40 -28 28 -75 27 -101 -1 l-20 -22 -16 22 c-17 25 -69 30 -98 9z
m-171 -454 c-27 -65 -112 -153 -147 -153 -9 0 -3 62 9 105 13 45 62 78 123 83
l30 2 -15 -37z m667 9 c14 -8 31 -27 38 -41 15 -33 25 -121 14 -121 -39 0
-135 106 -150 165 -7 28 -7 28 32 20 21 -4 51 -14 66 -23z"/>
<path d="M1190 2729 c-19 -12 -41 -29 -48 -38 -94 -117 -104 -235 -27 -320 36
-39 130 -91 205 -111 43 -12 183 -16 225 -6 11 2 30 5 43 5 23 1 32 17 10 18
-109 2 -303 57 -368 104 -44 32 -82 99 -75 134 2 11 4 29 5 40 0 11 10 31 21
44 18 22 22 23 58 11 21 -7 48 -9 60 -5 40 12 40 87 -1 125 -28 26 -64 25
-108 -1z"/>
<path d="M3737 2739 c-26 -15 -47 -63 -41 -95 8 -46 22 -49 106 -29 21 6 29 2
43 -19 55 -83 15 -186 -95 -241 -51 -25 -188 -62 -267 -72 -29 -3 -53 -9 -53
-13 0 -22 183 -29 265 -10 70 16 172 68 211 108 42 44 57 90 51 156 -12 133
-142 260 -220 215z"/>
<path d="M2507 2620 c-3 -8 -12 -43 -21 -78 -32 -122 -103 -238 -188 -307 -26
-21 -48 -41 -48 -45 0 -4 17 -10 39 -14 75 -12 178 -137 207 -250 6 -26 24
-37 24 -14 0 6 18 49 40 94 47 97 111 161 172 170 21 4 40 10 43 14 2 4 -15
21 -40 38 -88 62 -168 192 -204 332 -11 41 -21 68 -24 60z m103 -371 l29 -36
-42 -35 c-23 -19 -52 -54 -64 -78 l-21 -43 -20 40 c-11 21 -40 57 -65 80 l-45
41 22 21 c12 11 41 57 65 102 l43 80 35 -68 c19 -37 47 -84 63 -104z"/>
<path d="M3398 2273 c7 -3 16 -2 19 1 4 3 -2 6 -13 5 -11 0 -14 -3 -6 -6z"/>
<path d="M1317 2136 c-21 -8 -56 -27 -78 -42 -42 -29 -129 -124 -129 -141 0
-5 26 -18 58 -28 83 -29 222 -28 278 2 44 24 94 76 119 124 21 39 11 52 -61
79 -63 23 -132 25 -187 6z m173 -73 c24 -8 -52 -68 -104 -83 -43 -12 -133 -7
-148 9 -12 10 98 73 140 80 37 7 84 4 112 -6z"/>
<path d="M3525 2132 c-22 -9 -50 -23 -63 -30 -21 -12 -22 -14 -6 -45 69 -135
192 -184 362 -142 113 27 114 29 42 107 -106 116 -227 156 -335 110z m175 -80
c40 -16 92 -59 81 -67 -22 -13 -99 -16 -138 -6 -43 12 -129 69 -119 79 11 10
99 18 126 11 14 -4 36 -11 50 -17z"/>
<path d="M1653 1821 c-29 -14 -48 -31 -62 -59 l-20 -39 -391 0 c-284 0 -394
-3 -402 -11 -15 -15 -55 -13 410 -14 381 -1 384 -1 392 -22 5 -14 3 -23 -6
-26 -7 -3 -187 -5 -399 -4 -312 0 -385 -2 -385 -13 0 -11 78 -13 410 -13 226
0 410 -4 410 -8 0 -17 97 -105 141 -127 71 -36 161 -56 267 -57 165 -2 244 19
347 93 25 18 47 30 49 28 22 -24 63 -104 59 -115 -8 -22 -84 -73 -99 -67 -12
4 -12 8 3 18 16 12 16 14 0 38 -20 30 -50 27 -74 -9 -20 -30 -10 -69 22 -90
33 -22 79 -6 132 47 l41 40 44 -40 c24 -23 58 -46 77 -52 28 -10 37 -8 60 8
38 29 40 74 5 102 -24 19 -29 20 -48 7 -21 -14 -23 -45 -4 -57 5 -4 4 -9 -5
-12 -17 -6 -58 19 -85 54 l-20 25 30 50 c17 27 32 51 34 53 2 2 23 -9 47 -26
100 -72 176 -94 323 -95 151 -1 221 15 314 69 44 26 120 99 120 115 0 4 185 8
411 8 324 0 410 3 407 13 -4 9 -92 12 -396 13 -215 0 -393 2 -396 5 -2 2 0 14
4 25 8 21 10 21 398 21 361 0 419 3 408 21 -2 4 -182 7 -400 6 l-396 -1 -16
34 c-34 70 -134 103 -182 60 -31 -28 -12 -87 28 -87 19 0 50 30 50 48 0 7 3
12 8 12 10 0 62 -49 63 -60 1 -6 2 -16 3 -22 10 -66 -114 -181 -228 -212 -103
-29 -265 -36 -352 -15 -48 11 -190 75 -199 88 -5 9 30 49 69 79 38 29 126 29
126 0 0 -5 -4 -6 -10 -3 -18 11 -50 -15 -50 -41 0 -48 86 -59 110 -13 27 49
-15 105 -85 116 -45 7 -116 -28 -158 -77 l-32 -39 -29 27 -30 27 26 -34 26
-34 -31 -48 c-18 -27 -34 -49 -37 -48 -6 0 -60 84 -60 94 0 4 10 21 22 38 l21
32 -27 -26 -28 -26 -47 47 c-78 77 -159 89 -216 33 -21 -22 -25 -33 -21 -58 4
-16 14 -36 23 -42 51 -38 128 21 82 63 -17 15 -24 16 -40 6 -23 -15 -25 -9 -3
12 36 37 137 3 178 -59 15 -23 14 -25 -17 -44 -46 -28 -123 -60 -176 -72 -47
-11 -196 -14 -241 -4 -13 2 -42 7 -65 10 -83 12 -202 87 -247 156 -33 51 -25
105 21 132 35 21 42 21 35 3 -7 -19 40 -49 64 -41 43 13 33 78 -14 95 -34 13
-43 13 -91 -9z"/>
<path d="M2215 1814 c-22 -14 -71 -64 -110 -111 -38 -47 -82 -91 -97 -99 -63
-32 -168 -7 -186 46 -13 37 4 57 29 34 23 -21 49 -11 49 18 0 29 -30 48 -65
42 -75 -14 -84 -105 -16 -154 21 -14 50 -23 90 -25 86 -6 127 19 214 126 40
51 84 95 104 104 70 34 152 14 178 -43 16 -35 26 -25 12 11 -16 39 -78 77
-127 77 -22 0 -52 -10 -75 -26z"/>
<path d="M2643 1822 c-33 -17 -54 -42 -66 -74 -10 -27 8 -21 21 6 38 83 167
77 239 -11 141 -172 156 -183 249 -179 59 2 100 21 127 58 45 61 -19 152 -82
117 -30 -17 -40 -56 -16 -65 9 -4 24 1 34 10 22 20 27 20 35 1 9 -23 -15 -65
-45 -81 -33 -17 -94 -18 -137 -3 -19 6 -55 40 -94 87 -76 93 -74 91 -118 123
-43 31 -102 36 -147 11z"/>
</g>
</svg>
